<?xml version="1.0" standalone="no"?>
<!DOCTYPE svg PUBLIC "-//W3C//DTD SVG 20010904//EN"
 "http://www.w3.org/TR/2001/REC-SVG-20010904/DTD/svg10.dtd">
<svg version="1.0" xmlns="http://www.w3.org/2000/svg"
 width="480.000000pt" height="480.000000pt" viewBox="0 0 480.000000 480.000000"
 preserveAspectRatio="xMidYMid meet">

<g transform="translate(0.000000,480.000000) scale(0.100000,-0.100000)"
fill="#000000" stroke="none">
<path d="M2350 4493 c-45 -8 -1564 -747 -1599 -778 -19 -16 -42 -48 -52 -70
-26 -60 -389 -1667 -389 -1722 0 -27 9 -66 19 -88 10 -22 211 -283 446 -580
705 -888 634 -803 700 -835 39 -19 72 -20 911 -20 625 0 881 3 905 11 19 7 48
22 66 35 26 20 1014 1253 1081 1351 13 19 28 58 34 87 11 51 5 82 -176 882
-123 542 -196 847 -213 882 -13 29 -39 63 -56 76 -18 14 -376 191 -797 394
-766 370 -809 389 -880 375z m930 -1603 l0 -200 -642 0 c-583 0 -643 -2 -660
-17 -14 -13 -18 -31 -18 -88 0 -41 5 -78 13 -88 11 -15 65 -17 587 -19 633 -3
616 -2 683 -66 76 -71 97 -168 97 -442 0 -326 -35 -428 -165 -487 -37 -17 -94
-18 -847 -21 l-808 -3 0 200 0 201 646 2 c626 3 646 4 660 22 18 25 19 146 2
169 -12 15 -67 17 -583 20 -618 3 -611 3 -680 60 -83 68 -105 164 -106 450 -1
291 23 386 115 458 60 47 73 48 914 48 l792 1 0 -200z"/>
</g>
</svg>
