<svg id="svg" xmlns="http://www.w3.org/2000/svg" xmlns:xlink="http://www.w3.org/1999/xlink" width="400" height="393.19470699432895" viewBox="0, 0, 400,393.19470699432895"><g id="svgg"><path id="path0" d="M193.573 1.299 C 192.117 2.010,180.378 7.585,167.486 13.687 C 94.839 48.075,43.033 74.056,40.507 77.367 C 36.920 82.071,33.848 94.154,15.576 175.457 C -2.324 255.100,-1.734 249.905,5.906 260.596 C 11.606 268.571,35.426 299.043,62.338 332.788 C 66.521 338.033,73.516 346.858,77.883 352.400 C 103.444 384.840,107.673 389.543,112.794 391.225 C 117.676 392.829,208.839 393.741,257.845 392.676 C 290.428 391.969,289.598 392.142,295.652 384.762 C 297.524 382.480,305.515 372.641,313.411 362.897 C 321.308 353.152,328.185 344.669,328.695 344.045 C 329.484 343.079,363.593 300.417,369.805 292.628 C 370.965 291.172,374.243 287.089,377.089 283.554 C 401.453 253.289,401.694 252.718,397.788 234.405 C 395.271 222.602,381.728 162.088,377.735 144.802 C 364.086 85.712,362.364 79.689,357.902 75.454 C 356.263 73.898,290.776 40.832,289.333 40.832 C 289.173 40.832,278.933 35.898,266.579 29.868 C 254.226 23.837,244.020 18.904,243.900 18.904 C 243.781 18.904,239.128 16.732,233.562 14.079 C 204.937 0.433,199.140 -1.420,193.573 1.299 M285.646 141.588 L 285.444 161.437 221.300 161.815 C 146.417 162.256,154.763 160.904,155.146 172.528 C 155.279 176.549,155.671 180.122,156.017 180.468 C 157.003 181.452,181.533 182.087,222.306 182.182 C 274.743 182.305,277.538 182.706,283.887 191.021 C 289.799 198.765,291.250 207.026,291.217 232.775 C 291.176 264.389,288.083 274.192,276.261 280.173 L 271.885 282.387 192.086 282.971 C 148.197 283.292,111.862 283.395,111.342 283.200 C 110.620 282.929,110.397 278.240,110.397 263.284 L 110.397 243.723 134.783 243.224 C 148.195 242.949,175.501 242.699,195.463 242.668 C 229.741 242.615,238.903 242.255,240.254 240.907 C 241.477 239.687,241.420 225.691,240.187 224.667 C 238.471 223.243,232.723 223.031,176.938 222.335 C 121.172 221.638,122.313 221.738,115.982 216.993 C 107.041 210.292,104.927 201.736,104.872 172.023 C 104.818 143.662,106.627 135.078,114.074 128.350 C 121.365 121.763,118.245 121.973,210.410 121.845 L 285.847 121.739 285.646 141.588 " stroke="none" fill="#000000" fill-rule="evenodd"></path></g></svg>